<?xml version="1.0" encoding="UTF-8"?>
<svg version="1.1" xmlns="http://www.w3.org/2000/svg" width="592" height="422">
<path d="M0 0 C10.23 0 20.46 0 31 0 C31 1.98 31 3.96 31 6 C32.670625 5.9690625 32.670625 5.9690625 34.375 5.9375 C38 6 38 6 40 7 C39.67 8.32 39.34 9.64 39 11 C29.76 11.33 20.52 11.66 11 12 C10.38485553 18.76658915 9.85472848 25.20833631 9.90234375 31.94921875 C9.90446617 33.12445854 9.90446617 33.12445854 9.90663147 34.32344055 C9.91214192 36.77816918 9.92467604 39.23279986 9.9375 41.6875 C9.94252662 43.37174346 9.94708747 45.05598837 9.95117188 46.74023438 C9.96208173 50.82685953 9.97928179 54.91341328 10 59 C10.6997998 58.34555908 11.39959961 57.69111816 12.12060547 57.0168457 C25.03049799 45.08710401 37.65386004 36.65078921 55 33 C55.74910645 32.84063965 56.49821289 32.6812793 57.27001953 32.51708984 C76.79490484 28.48590472 76.79490484 28.48590472 82.40625 31.13671875 C83.0971875 31.64847656 83.788125 32.16023438 84.5 32.6875 C89.53357005 36.03016627 94.55921061 37.59404889 100.37890625 38.9987793 C105.84336375 40.46506643 107.86243254 42.52194196 111 47 C112.18900218 49.31542529 112.893785 51.40089964 113.34765625 53.9609375 C114.54639166 60.59471598 117.35005958 65.39042236 121 71 C121.4846875 71.81339844 121.969375 72.62679687 122.46875 73.46484375 C127.03823329 81.8024221 127.03823329 81.8024221 134.60546875 86.6796875 C137.83587289 86.68923079 140.73296891 86.35742801 143.8425293 85.48022461 C146.22858811 84.94911929 148.37264746 84.87050557 150.81640625 84.8671875 C152.20158447 84.86428711 152.20158447 84.86428711 153.61474609 84.86132812 C154.58750488 84.86583984 155.56026367 84.87035156 156.5625 84.875 C157.56104004 84.87693359 158.55958008 84.87886719 159.58837891 84.88085938 C165.19403659 84.91386079 170.69060182 85.12996355 176.26171875 85.77734375 C182.48492813 86.28336791 188.7610044 86.0704529 195 86 C195.21511595 82.14677182 195.21511595 82.14677182 194.0625 79.25 C192.83393641 75.49204079 192.30728568 71.91625798 192 68 C191.88785156 67.03191406 191.77570313 66.06382813 191.66015625 65.06640625 C191.09750909 57.15973298 191.09750909 57.15973298 193.64453125 53.88671875 C195.75 52.125 195.75 52.125 197.96875 50.5234375 C200.70889561 48.46832829 202.17646899 45.86554873 204 43 C206.94591215 40.31096186 208.80033816 39.63077573 212.765625 39.70703125 C213.65507812 39.71669922 214.54453125 39.72636719 215.4609375 39.73632812 C216.38132813 39.76146484 217.30171875 39.78660156 218.25 39.8125 C219.18585938 39.82603516 220.12171875 39.83957031 221.0859375 39.85351562 C223.39121327 39.88880046 225.6953106 39.93809719 228 40 C227.67 39.01 227.34 38.02 227 37 C227.7425 36.505 227.7425 36.505 228.5 36 C230.53639827 33.28480231 229.92128838 31.20498134 229.7890625 27.94140625 C230 26 230 26 232.25 23.5 C235 22 235 22 239 22 C239.33 22.66 239.66 23.32 240 24 C241.98 23.505 241.98 23.505 244 23 C243.319375 22.4225 242.63875 21.845 241.9375 21.25 C240 19 240 19 240.125 16.875 C241 15 241 15 243 13 C240.33866601 11.669333 238.27707285 11.84592251 235.296875 11.81054688 C234.10223633 11.79382935 232.90759766 11.77711182 231.67675781 11.7598877 C229.7330127 11.73952454 229.7330127 11.73952454 227.75 11.71875 C226.41242723 11.70071428 225.074862 11.68211138 223.73730469 11.66296387 C219.49159848 11.6032604 215.24581736 11.5510982 211 11.5 C206.080857 11.44079836 201.16179421 11.37853756 196.24279785 11.30812073 C194.26966178 11.28151512 192.29644935 11.26078412 190.32324219 11.2401123 C189.12860352 11.22339478 187.93396484 11.20667725 186.703125 11.18945312 C185.64770508 11.17692505 184.59228516 11.16439697 183.50488281 11.15148926 C181 11 181 11 179 10 C179.33 9.01 179.66 8.02 180 7 C182.95407189 5.85041625 185.8436144 5.88319277 188.984375 5.90234375 C189.91894531 5.90556641 190.85351562 5.90878906 191.81640625 5.91210938 C192.78449219 5.92048828 193.75257813 5.92886719 194.75 5.9375 C195.73355469 5.94201172 196.71710938 5.94652344 197.73046875 5.95117188 C200.15370791 5.96293517 202.57682273 5.97937316 205 6 C205 4.02 205 2.04 205 0 C270.34 0 335.68 0 403 0 C403.33 1.98 403.66 3.96 404 6 C404.7748877 5.99476318 405.54977539 5.98952637 406.34814453 5.98413086 C434.76412405 5.81727622 434.76412405 5.81727622 446 7 C446 7.99 446 8.98 446 10 C437.57202653 11.18224071 429.17220101 11.16660018 420.67993164 11.18945312 C419.03654778 11.1974069 417.39316598 11.20579573 415.74978638 11.21458435 C412.22714403 11.23255839 408.70450596 11.24760258 405.1818409 11.26036072 C399.61472278 11.28066199 394.04765564 11.30829893 388.48057556 11.33703613 C375.6687541 11.40206817 362.85689526 11.45772749 350.04502869 11.51302338 C338.28021299 11.56386021 326.5154161 11.61667559 314.75064749 11.67754889 C309.21246676 11.70592423 303.67429229 11.72950873 298.13607514 11.74947357 C294.70090413 11.76282946 291.26576255 11.78024194 287.830616 11.79878426 C286.2334117 11.80655946 284.63619804 11.81262061 283.03898048 11.81687737 C280.86590744 11.82289726 278.69294969 11.83493179 276.51991272 11.84851074 C274.69293901 11.85624134 274.69293901 11.85624134 272.82905674 11.86412811 C270.04996806 11.80676961 270.04996806 11.80676961 268 13 C273.3525559 18.50340846 273.3525559 18.50340846 280.4375 20.8125 C283.8104435 21.51110319 284.79568517 21.79568517 287.3125 24.3125 C288.1478125 25.6428125 288.1478125 25.6428125 289 27 C291.79614405 30.94512758 291.79614405 30.94512758 296 33 C298.39660778 32.94314098 300.79254898 32.85569493 303.1875 32.75 C309.92494598 32.57510656 313.75780279 33.72065534 319 38 C318.814375 38.825 318.62875 39.65 318.4375 40.5 C317.904889 44.76088799 318.10235078 47.78795367 319 52 C320.93704708 53.89290509 320.93704708 53.89290509 323 55 C323 55.66 323 56.32 323 57 C323.598125 57.12375 324.19625 57.2475 324.8125 57.375 C327 58 327 58 330 60 C330 61.32 330 62.64 330 64 C327.03 63.67 324.06 63.34 321 63 C321.495 63.70125 321.99 64.4025 322.5 65.125 C325.21090105 70.32089368 323.89873498 75.38290639 323 81 C323.58700684 81.27658447 324.17401367 81.55316895 324.77880859 81.83813477 C326.88126111 82.93788982 328.63132518 84.18895437 330.5390625 85.58984375 C335.64759745 88.81311418 340.47951576 88.63580772 346.375 88.5625 C353.68661677 88.49980144 359.32190064 89.06249195 366.02587891 92.14038086 C367.94675602 93.13307867 367.94675602 93.13307867 370 93 C370.4125 92.030625 370.825 91.06125 371.25 90.0625 C373 87 373 87 374.85546875 86.2578125 C381.24445539 85.4897376 386.79140649 89.14623123 391.6875 92.875 C398.27559165 99.07663934 399.71781174 106.57857684 401.68359375 115.171875 C403.01461493 120.70269959 405.20469336 124.20469336 409.25 128.25 C409.8275 128.8275 410.405 129.405 411 130 C411 130.66 411 131.32 411 132 C411.66 132 412.32 132 413 132 C413.09385986 132.64960693 413.18771973 133.29921387 413.28442383 133.96850586 C415.00423237 148.81486063 415.00423237 148.81486063 423.1875 160.5 C425.09117439 161.72108198 427.02830825 162.89209702 429 164 C430.55143088 165.09040468 432.09332796 166.19451033 433.625 167.3125 C435.41553512 168.54331441 437.20738617 169.77221509 439 171 C462.56234539 187.28653326 462.56234539 187.28653326 470.4375 195.5 C473.42687097 198.56140401 476.64193558 201.29209781 480 203.9375 C480.969375 204.70964844 481.93875 205.48179687 482.9375 206.27734375 C486.58767534 208.33056738 488.87581791 208.20937406 493 208 C495.9375 209.375 495.9375 209.375 498 211 C498 211.66 498 212.32 498 213 C498.99 213.33 499.98 213.66 501 214 C501 214.66 501 215.32 501 216 C501.70382812 216.25007812 502.40765625 216.50015625 503.1328125 216.7578125 C506.34345126 218.14879769 508.99379746 219.89183462 511.875 221.875 C515.1323359 224.09174267 518.33795985 226.2656089 521.8125 228.125 C525.55906463 230.32886155 529.01230546 232.82160156 532 236 C532 236.66 532 237.32 532 238 C532.721875 238.268125 533.44375 238.53625 534.1875 238.8125 C538.09404689 240.46193091 541.47868809 242.65245873 545 245 C548.54544856 245.68181703 551.71509684 246.01540017 555.32421875 245.8203125 C559.59197335 246.02893812 561.87536604 247.13799547 565.5625 249.25 C566.63628906 249.85328125 567.71007812 250.4565625 568.81640625 251.078125 C572 253 572 253 574.90234375 255.109375 C578.58634466 257.56931087 578.58634466 257.56931087 586 259 C586.33 177.16 586.66 95.32 587 11 C584.525 10.505 584.525 10.505 582 10 C580.25 8.875 580.25 8.875 579 7 C578.3125 3.3125 578.3125 3.3125 578 0 C582.62 0 587.24 0 592 0 C592 139.26 592 278.52 592 422 C396.64 422 201.28 422 0 422 C0 282.74 0 143.48 0 0 Z M249 11 C249 11.66 249 12.32 249 13 C251.97 13.33 254.94 13.66 258 14 C258.33 13.01 258.66 12.02 259 11 C255.7 11 252.4 11 249 11 Z M48 46 C47.030625 46.11859375 46.06125 46.2371875 45.0625 46.359375 C38.67935057 47.14892878 38.67935057 47.14892878 33.0625 50.0625 C28.15823437 56.51228006 28.15823437 56.51228006 26 64 C26.66 64.33 27.32 64.66 28 65 C28.125 72.75 28.125 72.75 27 75 C26.87458714 77.57533857 26.81482244 80.11191813 26.8125 82.6875 C26.80025391 83.38294922 26.78800781 84.07839844 26.77539062 84.79492188 C26.76203075 89.56439658 27.49838157 93.4714037 29 98 C29.66 98 30.32 98 31 98 C31.2475 98.969375 31.495 99.93875 31.75 100.9375 C33.03854722 105.49410178 34.99998479 109.71841403 37 114 C40.94727588 114.17942163 43.5980513 114.09350689 47 112 C47.66 112.99 48.32 113.98 49 115 C50.98 114.505 50.98 114.505 53 114 C53.33 112.35 53.66 110.7 54 109 C55.32 109 56.64 109 58 109 C59.32 112.96 60.64 116.92 62 121 C69.3831758 120.68357818 76.04776678 119.73064813 82 115 C83.30142916 111.33957308 83.30142916 111.33957308 83 108 C84.625 107.25 84.625 107.25 87 107 C87.969375 107.66 88.93875 108.32 89.9375 109 C92.76567381 111.25915545 92.76567381 111.25915545 95.6875 110.9375 C98.94386497 109.67812508 98.94386497 109.67812508 101 107 C101.4156389 102.26171655 100.90983755 100.17154758 97.9765625 96.39453125 C93.03329174 91.24592463 88.46773756 87.89933063 82 85 C80.63113049 83.70317626 79.2830709 82.38176866 78 81 C77.34 81 76.68 81 76 81 C73.80689846 77.24039736 72.98461532 73.19145271 72 69 C71.01705941 64.99563407 70.01181204 60.99715844 69 57 C68.73960938 55.95070313 68.47921875 54.90140625 68.2109375 53.8203125 C67.95570312 52.82773437 67.70046875 51.83515625 67.4375 50.8125 C67.09525391 49.46091797 67.09525391 49.46091797 66.74609375 48.08203125 C66.20397679 45.81401632 66.20397679 45.81401632 64 45 C62.23132545 44.90316436 60.45881697 44.87020618 58.6875 44.875 C57.74261719 44.87242188 56.79773438 44.86984375 55.82421875 44.8671875 C53.09827892 44.99537831 50.66357124 45.43011964 48 46 Z M10 67 C9.16076255 76.12343621 8.86481092 85.14910796 8.90234375 94.30810547 C8.90426881 95.68780971 8.90572982 97.06751466 8.9067688 98.44721985 C8.9099001 101.38921321 8.91612246 104.33117696 8.92483521 107.27315903 C8.93848734 111.93040485 8.94427815 116.58764129 8.94897461 121.24490356 C8.96001402 131.12161538 8.97957436 140.99830382 9 150.875 C9.02206798 161.56214643 9.04261502 172.24928354 9.05341816 182.93644822 C9.05838346 187.56171674 9.06821591 192.18694099 9.08184814 196.81219172 C9.08932733 199.68927922 9.0926271 202.56636073 9.0948143 205.44345665 C9.09756622 207.40412026 9.10535385 209.3647748 9.11331177 211.32542419 C9.11365185 217.00464852 8.91517612 222.38253684 8 228 C7.92282694 230.21113273 7.89196863 232.42426401 7.90234375 234.63671875 C7.90564697 235.91756348 7.9089502 237.1984082 7.91235352 238.51806641 C7.91647247 239.19556946 7.92059143 239.87307251 7.92483521 240.57110596 C7.93781003 242.73930854 7.94417169 244.90744834 7.94897461 247.07568359 C7.96223217 252.48170162 7.9859204 257.8876628 8.01037598 263.29364014 C8.03390604 268.57075282 8.05163739 273.84784571 8.0625 279.125 C8.06435303 279.86761078 8.06620605 280.61022156 8.06811523 281.37533569 C8.0909757 293.74906462 7.79785005 306.09528866 7.26782227 318.45751953 C7.21940186 319.65747559 7.17098145 320.85743164 7.12109375 322.09375 C7.0739624 323.14240234 7.02683105 324.19105469 6.97827148 325.27148438 C6.99800762 327.74981032 7.31582867 329.63953368 8 332 C8.34049534 336.36692358 8.42810075 340.74738498 8.5625 345.125 C8.58401123 345.78329803 8.60552246 346.44159607 8.62768555 347.11984253 C9.09785007 361.78080453 9.06376616 376.44117038 8.96313477 391.10791016 C8.95886978 391.98600845 8.9546048 392.86410675 8.95021057 393.76881409 C8.94199515 395.41543857 8.92961908 397.06204989 8.91221619 398.70860291 C8.90895828 399.45002029 8.90570038 400.19143768 8.90234375 400.95532227 C8.89710693 401.59462173 8.89187012 402.2339212 8.88647461 402.89259338 C9.03320979 405.61648357 9.55154593 408.30927558 10 411 C141.01 411 272.02 411 407 411 C407 409.02 407 407.04 407 405 C404.95959224 402.95959224 403.91674756 402 401 402 C400.67 401.01 400.34 400.02 400 399 C395.92095573 397.98408709 392.31006475 398.0485308 388.125 398.25 C382.73108515 398.28949519 379.40224932 398.04130531 375.3203125 394.44140625 C373.43372432 392.38178779 371.71405807 390.20378894 370 388 C369.01 387.67 368.02 387.34 367 387 C366.97421875 386.11957031 366.9484375 385.23914063 366.921875 384.33203125 C366.86515625 383.17058594 366.8084375 382.00914062 366.75 380.8125 C366.70359375 379.66394531 366.6571875 378.51539063 366.609375 377.33203125 C366.28359262 373.87454282 366.28359262 373.87454282 363.765625 371.57421875 C363.18296875 370.72472656 362.6003125 369.87523437 362 369 C362.70018256 367.1328465 363.41892826 365.2700377 364.24072266 363.453125 C365.83491675 358.30249404 364.73021847 352.78207281 364.1875 347.5 C364.07857422 346.29601562 363.96964844 345.09203125 363.85742188 343.8515625 C363.58795175 340.89910726 363.30174895 337.94930124 363 335 C361.54762939 335.02525757 361.54762939 335.02525757 360.06591797 335.05102539 C356.45346281 335.10188147 352.84311988 335.09323508 349.23046875 335.06713867 C347.67084711 335.06406728 346.11110663 335.07686916 344.55175781 335.10620117 C331.60167027 335.33361331 331.60167027 335.33361331 327.71411133 332.09667969 C326.16936716 329.78709468 325.05431413 327.56555279 324 325 C323.14728516 323.64261719 323.14728516 323.64261719 322.27734375 322.2578125 C321.83519531 321.55398438 321.39304687 320.85015625 320.9375 320.125 C318.65615843 316.71187598 316.8167494 314.71753723 313 313 C312.0925 312.484375 311.185 311.96875 310.25 311.4375 C307.3197564 310.14143071 305.64335767 309.83999278 302.5625 309.5 C299.29746407 308.85362233 298.16814144 308.18630197 295.90234375 305.67578125 C292.51047803 300.57057062 290.13718462 296.17330775 290 290 C289.35933594 289.76925781 288.71867187 289.53851563 288.05859375 289.30078125 C283.76991424 287.68373815 280.06542515 286.24884568 276.5625 283.25 C272.79331784 280.31344003 269.2710101 280.63048074 264.6484375 280.921875 C262 281 262 281 259.2890625 280.390625 C258.53367187 280.26171875 257.77828125 280.1328125 257 280 C256.34 280.66 255.68 281.32 255 282 C250.97641294 281.70195651 247.36149347 281.31827136 244 279 C243.4225 278.20335937 242.845 277.40671875 242.25 276.5859375 C235.98373449 269.38408374 224.17014954 268.22266427 215.1171875 266.7734375 C211.92231213 265.98072406 210.81490106 265.6749032 209 263 C207.86932507 260.20241092 206.97858561 257.37031235 206.0625 254.49609375 C205.14084267 251.69788268 205.14084267 251.69788268 202 250 C201.0409375 250.804375 201.0409375 250.804375 200.0625 251.625 C195.62763089 253.61616572 192.51336658 252.32413617 188 251 C184.78028235 250.05685038 181.85636627 249.83555197 178.5 249.8125 C177.5615625 249.79832031 176.623125 249.78414062 175.65625 249.76953125 C172.88755905 250.00975591 171.27700313 250.41758727 169 252 C168.18415432 255.05908413 168.18415432 255.05908413 168 258 C164.1249404 259.34136678 160.38202821 258.88605467 156.375 258.5625 C154.93241686 258.46301151 153.48970649 258.36535064 152.046875 258.26953125 C151.35013672 258.2226416 150.65339844 258.17575195 149.93554688 258.12744141 C134.35799768 257.10177533 123.71177668 262.004115 111.9375 272.25 C107.8709112 275.9268434 105.95884819 278.4343802 105.4375 283.9375 C104.60537658 288.55444284 104.60537658 288.55444284 102.046875 290.4375 C99.72671611 291.4208786 97.3940293 292.21733658 95 293 C93.7315625 293.804375 93.7315625 293.804375 92.4375 294.625 C85.58341177 298.49140874 77.66134007 298.89259703 70.0625 297.4375 C66.31919892 294.82853258 66.17352541 289.92332656 65.3671875 285.6328125 C64.02348197 276.05624455 63.72341242 266.66440107 64 257 C64.0299707 255.95118652 64.05994141 254.90237305 64.09082031 253.82177734 C64.19676045 250.33911924 64.3140495 246.85708011 64.4375 243.375 C64.47657471 242.26020264 64.51564941 241.14540527 64.5559082 239.99682617 C64.86860903 232.10277452 65.24253328 225.1785145 68.4765625 217.89453125 C69.12612131 215.54351614 68.84123233 214.2699174 68 212 C66.18777466 209.9375006 66.18777466 209.9375006 64 208 C62.9790625 206.88625 62.9790625 206.88625 61.9375 205.75 C60.06408615 203.66485687 60.06408615 203.66485687 57 204 C56.8453125 203.2265625 56.8453125 203.2265625 56.6875 202.4375 C55.75736134 199.13973565 54.38604488 196.13366668 53 193 C49.04 192.67 45.08 192.34 41 192 C40.34 193.65 39.68 195.3 39 197 C38.01 196.67 37.02 196.34 36 196 C34.37072516 192.29710263 34.74971805 187.94194073 35 184 C36.68224833 181.56946061 37.72502875 181.06169489 40.62890625 180.41015625 C42.58690128 180.17811689 44.5452396 179.94895638 46.50390625 179.72265625 C49.1586461 179.24924938 49.1586461 179.24924938 50.33984375 176.93359375 C50.55769531 176.29550781 50.77554688 175.65742188 51 175 C49.68 174.67 48.36 174.34 47 174 C47.97472708 168.73647377 48.98820986 164.51768521 52 160 C52 159.34 52 158.68 52 158 C51.25234375 158.08378906 50.5046875 158.16757813 49.734375 158.25390625 C48.74953125 158.35574219 47.7646875 158.45757812 46.75 158.5625 C45.28820313 158.71912109 45.28820313 158.71912109 43.796875 158.87890625 C41.19498389 158.99155796 39.469836 158.69978687 37 158 C34.66699067 157.96111651 32.33290199 157.9551365 30 158 C30 160.31 30 162.62 30 165 C27 164 27 164 25.5 161.1875 C25.005 160.135625 24.51 159.08375 24 158 C23.49726563 157.37609375 22.99453125 156.7521875 22.4765625 156.109375 C20.79413867 153.70591238 20.36259593 151.93931601 19.875 149.0625 C19.72804688 148.22847656 19.58109375 147.39445312 19.4296875 146.53515625 C19.28789062 145.69855469 19.14609375 144.86195313 19 144 C18.77957031 143.21753906 18.55914062 142.43507813 18.33203125 141.62890625 C17.87685939 138.02501611 18.77156521 135.33987836 19.8125 131.875 C20.16957031 130.65554687 20.52664062 129.43609375 20.89453125 128.1796875 C22 125 22 125 24 122 C23.979375 121.154375 23.95875 120.30875 23.9375 119.4375 C23.99733774 116.14642427 24.53373914 114.08164851 25.5625 111 C26.8693629 106.95727458 27.21000132 104.18000457 26 100 C25.34 100 24.68 100 24 100 C23.87625 98.0509375 23.87625 98.0509375 23.75 96.0625 C23.00700275 89.49935764 20.79886217 83.77748851 16.3125 78.875 C13.5859669 75.48525614 13.48904173 73.23836165 13 69 C12.01 68.34 11.02 67.68 10 67 Z M54 178 C54 178.66 54 179.32 54 180 C54.66 180 55.32 180 56 180 C56 179.34 56 178.68 56 178 C55.34 178 54.68 178 54 178 Z M585 273 C585 276.96 585 280.92 585 285 C585.99 285.495 585.99 285.495 587 286 C586.67 281.71 586.34 277.42 586 273 C585.67 273 585.34 273 585 273 Z M550 288 C549.84144531 288.59167969 549.68289063 289.18335938 549.51953125 289.79296875 C547.95393053 295.09525186 546.39979278 298.38991362 542 302 C539.72929433 303.13535283 538.44982289 303.12404153 535.9296875 303.140625 C535.115 303.15996094 534.3003125 303.17929687 533.4609375 303.19921875 C531.76064677 303.23260814 530.05999149 303.25126554 528.359375 303.25390625 C521.81390923 303.44883391 516.71612884 305.28387116 512 310 C511.89132698 311.58179615 511.81410173 313.16577153 511.75 314.75 C511.28859799 320.60451074 509.44057789 325.27012186 507.1953125 330.65234375 C505.95725987 334.1197003 505.39388202 337.29059279 504.9375 340.9375 C504.12088469 347.00378519 502.964814 350.71850503 497.94921875 354.578125 C494.55214923 356.93038154 491.30522753 358.8691882 487.5 360.5 C484.65623406 361.81485888 484.65623406 361.81485888 484.125 365.1875 C484.08375 366.115625 484.0425 367.04375 484 368 C483.030625 367.79375 482.06125 367.5875 481.0625 367.375 C474.46567774 366.47422909 468.9456899 368.38098047 463.1875 371.5 C457.67161249 374.44470215 452.16025631 375.2908296 446 376 C447.05875074 379.40312738 448.00902154 382.01353231 450 385 C449.195625 385.28875 448.39125 385.5775 447.5625 385.875 C444.8673532 386.73262568 444.8673532 386.73262568 444 389 C443.924249 390.47854728 443.86352093 391.95789291 443.8125 393.4375 C443.54296875 395.89453125 443.54296875 395.89453125 443 398 C440.625 399.625 440.625 399.625 437 401 C435.21879237 402.21408433 433.44891524 403.44487466 431.6875 404.6875 C426.42278749 408.12038104 423.19058305 408.71039478 417 408 C416.505 408.99 416.505 408.99 416 410 C419.43477237 411.14492412 422.07000994 411.12587049 425.69400024 411.12698364 C426.3778112 411.12854363 427.06162215 411.13010362 427.76615465 411.13171089 C430.0623866 411.13570639 432.35855269 411.13253687 434.65478516 411.12939453 C436.29890481 411.13074919 437.94302417 411.13252949 439.58714294 411.13470459 C444.05590573 411.13927053 448.52464548 411.13749299 452.99340868 411.1343255 C457.6627919 411.13179844 462.33217311 411.13414033 467.0015564 411.13571167 C474.841536 411.13753199 482.6815062 411.13513028 490.52148438 411.13037109 C499.59820167 411.12492495 508.67489651 411.12669424 517.75161326 411.1321975 C525.53421713 411.13672803 533.31681423 411.13737959 541.099419 411.13475883 C545.75236528 411.13319621 550.405301 411.13300196 555.05824661 411.13629532 C559.4297523 411.13917329 563.80122888 411.13719973 568.1727314 411.13140106 C569.7816456 411.13007322 571.39056223 411.13046798 572.99947548 411.13266373 C575.18633963 411.13537422 577.37310902 411.13199543 579.55996704 411.12698364 C580.78666422 411.12660662 582.0133614 411.12622959 583.27723122 411.12584114 C585.91422701 411.31034183 585.91422701 411.31034183 587 410 C587.09571971 408.50716202 587.12188227 407.00980345 587.12025452 405.51390076 C587.12162918 404.54489838 587.12300385 403.575896 587.12442017 402.57752991 C587.12082489 401.50579025 587.11722961 400.4340506 587.11352539 399.32983398 C587.11374443 397.64712402 587.11374443 397.64712402 587.1139679 395.93041992 C587.1132682 392.20229189 587.10547315 388.47421311 587.09765625 384.74609375 C587.09579227 382.16919482 587.09436827 379.59229553 587.09336853 377.01539612 C587.08993342 370.91324885 587.0820426 364.81112206 587.07201904 358.70898253 C587.06085689 351.7635075 587.0553472 344.81803165 587.05032361 337.87254989 C587.03985996 323.58169034 587.02226115 309.2908458 587 295 C583.86385458 294.7656421 583.86385458 294.7656421 580.9375 296.625 C576.1305504 298.77386942 571.83719035 297.6527067 567 296 C563.9375 294.125 563.9375 294.125 561 292 C555.73230562 289.13986285 555.73230562 289.13986285 550 288 Z " fill="#625753" transform="translate(0,0)"/>
<path d="M0 0 C10.23 0 20.46 0 31 0 C31 1.98 31 3.96 31 6 C32.670625 5.9690625 32.670625 5.9690625 34.375 5.9375 C38 6 38 6 40 7 C39.67 8.32 39.34 9.64 39 11 C29.76 11.33 20.52 11.66 11 12 C10.1488253 21.21827173 10.1488253 21.21827173 9.9375 30.35546875 C9.94523438 31.63744141 9.95296875 32.91941406 9.9609375 34.24023438 C9.97382813 35.54283203 9.98671875 36.84542969 10 38.1875 C10.14321561 52.78833181 10.14321561 52.78833181 9.4375 57.55078125 C8.99015759 61.07759682 9.41614128 63.51833975 10 67 C10.08750885 69.17226977 10.12625247 71.3468272 10.12698364 73.52085876 C10.12980347 74.81477036 10.13262329 76.10868195 10.13552856 77.44180298 C10.13358453 78.8634645 10.13153637 80.28512588 10.12939453 81.70678711 C10.13075052 83.21353701 10.13253156 84.72028658 10.13470459 86.22703552 C10.13925583 90.30967295 10.13749875 94.39228504 10.1343255 98.4749229 C10.13178952 102.75310378 10.13414294 107.03128253 10.13571167 111.3094635 C10.13752994 118.49431751 10.13513623 125.67916123 10.13037109 132.86401367 C10.1249312 141.16189586 10.12669053 149.45975347 10.1321975 157.75763506 C10.13674084 164.88986799 10.13737313 172.02209354 10.13475883 179.15432745 C10.13320252 183.41059208 10.13298455 187.66684517 10.13629532 191.92310905 C10.13919169 195.92614576 10.13716591 199.92915091 10.13140106 203.93218422 C10.13008284 205.39828819 10.1304516 206.86439484 10.13266373 208.33049774 C10.13541224 210.3377167 10.13134846 212.3449415 10.12698364 214.35215759 C10.12660662 215.47356109 10.12622959 216.59496458 10.12584114 217.75035 C9.99133028 221.22388182 9.52145641 224.56533031 9 228 C8.92282694 230.21113273 8.89196863 232.42426401 8.90234375 234.63671875 C8.90729858 236.55798584 8.90729858 236.55798584 8.91235352 238.51806641 C8.91647247 239.19556946 8.92059143 239.87307251 8.92483521 240.57110596 C8.93781003 242.73930854 8.94417169 244.90744834 8.94897461 247.07568359 C8.96223217 252.48170162 8.9859204 257.8876628 9.01037598 263.29364014 C9.03390604 268.57075282 9.05163739 273.84784571 9.0625 279.125 C9.06435303 279.86761078 9.06620605 280.61022156 9.06811523 281.37533569 C9.0909757 293.74906462 8.79785005 306.09528866 8.26782227 318.45751953 C8.19519165 320.25745361 8.19519165 320.25745361 8.12109375 322.09375 C8.0739624 323.14240234 8.02683105 324.19105469 7.97827148 325.27148438 C7.99800211 327.74911947 8.31385122 329.64055757 9 332 C10.50530824 350.60782931 10.05977133 369.48925866 10.02734375 388.140625 C10.02514294 390.36995423 10.02314787 392.59928368 10.0213623 394.82861328 C10.01660625 400.21908027 10.00933796 405.6095391 10 411 C55.72015292 411.01720328 101.44030614 411.03311195 147.16046143 411.04234314 C148.18345254 411.04255023 148.18345254 411.04255023 149.22711014 411.04276149 C164.06613649 411.04575781 178.90516287 411.0485275 193.74418931 411.05106533 C201.02639965 411.05231213 208.30860998 411.05360876 215.59082031 411.05493164 C216.67753858 411.05512778 216.67753858 411.05512778 217.78621075 411.05532788 C241.06196079 411.05955203 264.33770833 411.06703456 287.61345687 411.07629722 C311.63073849 411.0858371 335.64801874 411.09190979 359.66530223 411.09391499 C363.09578956 411.09420294 366.52627689 411.09452857 369.95676422 411.09487724 C370.96903398 411.09497838 370.96903398 411.09497838 372.00175363 411.09508156 C382.00193127 411.09617012 392.00210489 411.10014136 402.00228119 411.10573006 C463.34253931 411.13904773 524.66633503 410.9496234 586 410 C586.14533015 395.27776311 586.28885064 380.55552016 586.42309284 365.83317757 C586.49518146 357.9367681 586.56882017 350.04038293 586.64819336 342.14404297 C586.71102174 335.89315301 586.77022069 329.64224103 586.82505554 323.39127564 C586.85421892 320.08122763 586.88574479 316.77122942 586.92053413 313.46123505 C586.95905593 309.76682539 586.99116263 306.07241252 587.02172852 302.37792969 C587.03467453 301.27957291 587.04762054 300.18121613 587.06095886 299.04957581 C587.06799835 298.04279282 587.07503784 297.03600983 587.08229065 295.99871826 C587.09058679 295.12485851 587.09888292 294.25099876 587.10743046 293.35065842 C587.0042513 291.09302157 586.63422654 289.16286412 586 287 C586.66 287 587.32 287 588 287 C588 284.03 588 281.06 588 278 C587.34 278 586.68 278 586 278 C585.9146903 274.07575361 586.04269337 270.31301168 586.4940176 266.41290474 C587.04956473 261.02047119 587.15262585 255.68605547 587.15821838 250.26852417 C587.16562535 248.71825033 587.16562535 248.71825033 587.17318195 247.13665783 C587.18844995 243.69901688 587.19688835 240.26139445 587.20532227 236.82373047 C587.21490921 234.34937886 587.22491977 231.87502886 587.23532104 229.40068054 C587.25671067 224.08663344 587.27517178 218.77258869 587.29092598 213.4585228 C587.3137086 205.77542468 587.34183941 198.09235333 587.37124526 190.40927805 C587.41881879 177.94180921 587.46211046 165.47432937 587.50268555 153.00683594 C587.54209275 140.90103297 587.58353136 128.79523975 587.62768555 116.68945312 C587.63177196 115.56879014 587.63177196 115.56879014 587.63594092 114.4254875 C587.64962126 110.67719184 587.66334136 106.92889633 587.67708123 103.18060088 C587.79088501 72.12042074 587.89765793 41.06022012 588 10 C587.04738281 10.02191406 586.09476563 10.04382812 585.11328125 10.06640625 C582 10 582 10 580.1875 8.9375 C578.44270397 6.09072753 578.30957852 3.28153235 578 0 C582.62 0 587.24 0 592 0 C592 139.26 592 278.52 592 422 C396.64 422 201.28 422 0 422 C0 282.74 0 143.48 0 0 Z " fill="#19191B" transform="translate(0,0)"/>
<path d="M0 0 C65.34 0 130.68 0 198 0 C198.33 1.98 198.66 3.96 199 6 C199.7748877 5.99476318 200.54977539 5.98952637 201.34814453 5.98413086 C229.76412405 5.81727622 229.76412405 5.81727622 241 7 C241 7.99 241 8.98 241 10 C232.48251059 11.20317603 223.98758571 11.15954131 215.40454102 11.17358398 C213.73160127 11.17989824 212.05866317 11.186665 210.38572693 11.19384766 C206.79923921 11.20844909 203.21275768 11.22020067 199.62625313 11.22979546 C193.95831926 11.24530541 188.29044019 11.26924968 182.62254333 11.29469299 C166.51117409 11.36575868 150.39977512 11.42584217 134.28833008 11.47680664 C125.37809713 11.50506586 116.4679204 11.54041101 107.55774635 11.58346039 C101.91919684 11.61027524 96.28071079 11.62815289 90.64210999 11.63949764 C87.14463905 11.64859476 83.6472459 11.66594077 80.14982033 11.68567657 C78.52359483 11.69317595 76.89734945 11.69723456 75.27110672 11.69767189 C73.05851676 11.69874781 70.84632643 11.71193467 68.63380432 11.72825623 C67.39369882 11.73248816 66.15359331 11.7367201 64.87590885 11.74108028 C61.87079436 11.70196992 61.87079436 11.70196992 60 14 C59.4121875 13.2884375 59.4121875 13.2884375 58.8125 12.5625 C56.59191626 10.64820367 54.86624291 10.38733012 52 10 C52 9.34 52 8.68 52 8 C51.34 8 50.68 8 50 8 C50 8.66 50 9.32 50 10 C48.02 10 46.04 10 44 10 C44 10.66 44 11.32 44 12 C35.1683628 11.8925838 26.33681185 11.77996789 17.50532722 11.66066074 C13.4047835 11.60542983 9.30423265 11.55200956 5.20361328 11.50268555 C1.24838828 11.45504447 -2.7067488 11.40270176 -6.66186905 11.34705925 C-8.17296289 11.32663453 -9.68408084 11.30792164 -11.19521713 11.29092598 C-13.30715424 11.26688449 -15.41892468 11.23682978 -17.53076172 11.20532227 C-19.33611893 11.18200584 -19.33611893 11.18200584 -21.177948 11.15821838 C-24 11 -24 11 -26 10 C-25.67 9.01 -25.34 8.02 -25 7 C-22.04592811 5.85041625 -19.1563856 5.88319277 -16.015625 5.90234375 C-15.08105469 5.90556641 -14.14648438 5.90878906 -13.18359375 5.91210938 C-12.21550781 5.92048828 -11.24742187 5.92886719 -10.25 5.9375 C-9.26644531 5.94201172 -8.28289062 5.94652344 -7.26953125 5.95117188 C-4.84629209 5.96293517 -2.42317727 5.97937316 0 6 C0 4.02 0 2.04 0 0 Z " fill="#202021" transform="translate(205,0)"/>
<path d="M0 0 C4.62 0 9.24 0 14 0 C14 135.96 14 271.92 14 412 C13.67 411.34 13.34 410.68 13 410 C12.01 409.67 11.02 409.34 10 409 C9.99576806 408.39554676 9.99153612 407.79109352 9.98717594 407.16832352 C9.88388445 392.46263236 9.7752489 377.75698741 9.66066074 363.05138016 C9.60537581 355.939869 9.55190161 348.82835283 9.50268555 341.71679688 C9.45520549 334.8568216 9.40268548 327.99689978 9.34705925 321.13698578 C9.32664161 318.51668297 9.30792755 315.89636632 9.29092598 313.27603912 C9.26686907 309.61268604 9.23681595 305.94942844 9.20532227 302.28613281 C9.1995668 301.19712677 9.19381134 300.10812073 9.18788147 298.9861145 C9.17319824 297.48856125 9.17319824 297.48856125 9.15821838 295.96075439 C9.15176583 295.09426899 9.14531328 294.22778358 9.1386652 293.33504105 C9.00575456 291.0969035 8.62305049 289.14834026 8 287 C8.66 287 9.32 287 10 287 C10 284.03 10 281.06 10 278 C9.34 278 8.68 278 8 278 C7.9146903 274.07575361 8.04269337 270.31301168 8.4940176 266.41290474 C9.04956473 261.02047119 9.15262585 255.68605547 9.15821838 250.26852417 C9.16315636 249.23500828 9.16809434 248.20149239 9.17318195 247.13665783 C9.18844995 243.69901688 9.19688835 240.26139445 9.20532227 236.82373047 C9.21490921 234.34937886 9.22491977 231.87502886 9.23532104 229.40068054 C9.25671067 224.08663344 9.27517178 218.77258869 9.29092598 213.4585228 C9.3137086 205.77542468 9.34183941 198.09235333 9.37124526 190.40927805 C9.41881879 177.94180921 9.46211046 165.47432937 9.50268555 153.00683594 C9.54209275 140.90103297 9.58353136 128.79523975 9.62768555 116.68945312 C9.63040982 115.94234447 9.63313409 115.19523581 9.63594092 114.4254875 C9.64962126 110.67719184 9.66334136 106.92889633 9.67708123 103.18060088 C9.79088501 72.12042074 9.89765793 41.06022012 10 10 C9.04738281 10.02191406 8.09476563 10.04382812 7.11328125 10.06640625 C4 10 4 10 2.1875 8.9375 C0.44270397 6.09072753 0.30957852 3.28153235 0 0 Z " fill="#141416" transform="translate(578,0)"/>
<path d="M0 0 C0.66 0.33 1.32 0.66 2 1 C0.71034824 2.37562854 -0.62689293 3.70766393 -2 5 C-2.66 5 -3.32 5 -4 5 C-4.16687448 7.41645782 -4.16687448 7.41645782 -4 10 C-3.34 10.66 -2.68 11.32 -2 12 C-2.66 12 -3.32 12 -4 12 C-4.2475 12.66 -4.495 13.32 -4.75 14 C-6.31817045 17.76360907 -8.14505046 21.3711424 -10 25 C-9.01 25.33 -8.02 25.66 -7 26 C-6.875 33.75 -6.875 33.75 -8 36 C-8.09909819 38.57363824 -8.13892151 41.11434091 -8.125 43.6875 C-8.12886719 44.38294922 -8.13273437 45.07839844 -8.13671875 45.79492188 C-8.12831616 50.29451076 -7.73315961 54.56031125 -7 59 C-6.34 59 -5.68 59 -5 59 C-4.67 60.98 -4.34 62.96 -4 65 C-8.875 63.25 -8.875 63.25 -10 61 C-10.66 61 -11.32 61 -12 61 C-12.18175781 60.28714844 -12.36351562 59.57429688 -12.55078125 58.83984375 C-15.08796305 48.69809656 -15.08796305 48.69809656 -20.625 40 C-23.3829523 36.51627077 -23.50975991 34.3304541 -24 30 C-24.495 29.505 -24.99 29.01 -25.5 28.5 C-27.90668269 26.09331731 -27.6914451 23.27068194 -28 20 C-27.40703125 19.73058594 -26.8140625 19.46117188 -26.203125 19.18359375 C-24.00019996 18.00010743 -22.55045129 16.78302471 -20.75 15.0625 C-14.38752536 9.33141598 -7.09518756 4.76169748 0 0 Z " fill="#605855" transform="translate(36,39)"/>
<path d="M0 0 C0.33 0 0.66 0 1 0 C1 1.98 1 3.96 1 6 C59.74 6 118.48 6 179 6 C179 6.33 179 6.66 179 7 C178.11393507 7.00423194 177.22787014 7.00846388 176.31495476 7.01282406 C154.75716528 7.11611912 133.19940849 7.22475522 111.64167595 7.33933926 C101.21653227 7.3946223 90.79138516 7.44809621 80.36621094 7.49731445 C71.27986373 7.54021655 62.19354121 7.58650972 53.10723221 7.63687855 C48.2959211 7.66343094 43.48461474 7.68828276 38.67327499 7.70907402 C34.14418567 7.72869916 29.61514315 7.75286036 25.08609581 7.78049088 C23.42446558 7.78983023 21.76282511 7.79751661 20.10117912 7.80341911 C17.83049374 7.81173345 15.55992032 7.82602461 13.28927612 7.84178162 C12.01904539 7.84823417 10.74881466 7.85468672 9.44009209 7.8613348 C6.20653884 7.99167471 3.17425262 8.38856907 0 9 C-1.53445094 5.93109813 -0.54984289 3.29905734 0 0 Z " fill="#454545" transform="translate(9,405)"/>
<path d="M0 0 C30.5392995 -0.20638953 30.5392995 -0.20638953 42 1 C42 1.99 42 2.98 42 4 C28.14 4 14.28 4 0 4 C0 2.66666667 0 1.33333333 0 0 Z " fill="#030304" transform="translate(404,6)"/>
<path d="M0 0 C0.66 0 1.32 0 2 0 C2 0.99 2 1.98 2 3 C3.30678207 2.83544815 4.61356415 2.6708963 5.95994568 2.50135803 C10.5475401 1.99419833 15.03076354 1.89802653 19.64086914 1.97827148 C20.85716003 1.9926828 20.85716003 1.9926828 22.09802246 2.00738525 C24.74383207 2.04002674 27.38945794 2.08048842 30.03515625 2.12109375 C31.88316729 2.14542906 33.73118489 2.16927084 35.57920837 2.19264221 C40.41742487 2.25514401 45.25552362 2.32430469 50.09362793 2.39489746 C55.04088021 2.46588924 59.98821524 2.53052092 64.93554688 2.59570312 C74.62378889 2.72427772 84.31191836 2.85989389 94 3 C94 3.33 94 3.66 94 4 C62.98 4 31.96 4 0 4 C-0.33 3.34 -0.66 2.68 -1 2 C-0.67 1.34 -0.34 0.68 0 0 Z " fill="#404040" transform="translate(408,408)"/>
<path d="M0 0 C0.33 0 0.66 0 1 0 C1.06058594 0.64066406 1.12117188 1.28132813 1.18359375 1.94140625 C1.67209412 6.98423313 2.23779286 11.9912102 3 17 C3.66 17 4.32 17 5 17 C5.33 18.98 5.66 20.96 6 23 C1.125 21.25 1.125 21.25 0 19 C-0.66 19 -1.32 19 -2 19 C-2.53122363 17.23225581 -3.04964073 15.46065917 -3.5625 13.6875 C-3.85253906 12.70136719 -4.14257812 11.71523437 -4.44140625 10.69921875 C-5 8 -5 8 -4 5 C-4 5.66 -4 6.32 -4 7 C-2.68 7 -1.36 7 0 7 C0 4.69 0 2.38 0 0 Z " fill="#7D7B79" transform="translate(26,81)"/>
<path d="M0 0 C0.33 0.99 0.66 1.98 1 3 C0.01 3.99 -0.98 4.98 -2 6 C-2.99 5.67 -3.98 5.34 -5 5 C-5.33 6.65 -5.66 8.3 -6 10 C-4.35 10.33 -2.7 10.66 -1 11 C-4.13498292 12.85776765 -6.37471432 13.20140476 -10 13 C-10.33 11.35 -10.66 9.7 -11 8 C-11.66 8 -12.32 8 -13 8 C-12.67 7.01 -12.34 6.02 -12 5 C-12.66 4.34 -13.32 3.68 -14 3 C-12.4188708 2.49307308 -10.83498617 1.99473557 -9.25 1.5 C-7.92742188 1.08234375 -7.92742188 1.08234375 -6.578125 0.65625 C-4 0 -4 0 0 0 Z " fill="#6D6662" transform="translate(54,34)"/>
<path d="M0 0 C0.66 0.33 1.32 0.66 2 1 C0.71034824 2.37562854 -0.62689293 3.70766393 -2 5 C-2.66 5 -3.32 5 -4 5 C-4.16687448 7.41645782 -4.16687448 7.41645782 -4 10 C-3.34 10.66 -2.68 11.32 -2 12 C-2.66 12 -3.32 12 -4 12 C-4.33 12.99 -4.66 13.98 -5 15 C-5.99 15.33 -6.98 15.66 -8 16 C-10.1385485 13.8614515 -10.42655063 12.86724686 -11 10 C-11 10.66 -11 11.32 -11 12 C-12.65 12.33 -14.3 12.66 -16 13 C-14.89039427 9.67118282 -14.42884616 9.33631222 -11.62109375 7.51953125 C-10.94755859 7.07802734 -10.27402344 6.63652344 -9.58007812 6.18164062 C-8.87302734 5.72982422 -8.16597656 5.27800781 -7.4375 4.8125 C-6.72658203 4.34908203 -6.01566406 3.88566406 -5.28320312 3.40820312 C-3.52687504 2.26482175 -1.7640395 1.13144772 0 0 Z " fill="#696260" transform="translate(36,39)"/>
<path d="M0 0 C0.66 0 1.32 0 2 0 C2.04950439 5.88988016 2.0857692 11.7796387 2.10986328 17.66967773 C2.11990963 19.67262889 2.13354909 21.67556542 2.15087891 23.6784668 C2.17518713 26.56042088 2.18649687 29.44218072 2.1953125 32.32421875 C2.20563507 33.21711105 2.21595764 34.11000336 2.22659302 35.029953 C2.22739134 39.4717257 2.10378748 42.96349427 0 47 C-0.33 47 -0.66 47 -1 47 C-0.67 31.49 -0.34 15.98 0 0 Z " fill="#434343" transform="translate(8,179)"/>
<path d="M0 0 C3 0.125 3 0.125 4 1.125 C6.52596259 1.36153523 9.03107207 1.54673692 11.5625 1.6875 C12.27341797 1.73068359 12.98433594 1.77386719 13.71679688 1.81835938 C15.47761912 1.92471777 17.2387832 2.02538846 19 2.125 C19 2.455 19 2.785 19 3.125 C-0.47 3.125 -19.94 3.125 -40 3.125 C-40 2.795 -40 2.465 -40 2.125 C-38.91468994 2.09994385 -37.82937988 2.0748877 -36.71118164 2.04907227 C-32.698684 1.95516245 -28.68636618 1.85490233 -24.67407227 1.75268555 C-22.93485712 1.70927427 -21.19559765 1.66760388 -19.45629883 1.62768555 C-16.96161512 1.57013232 -14.4671559 1.5063958 -11.97265625 1.44140625 C-11.19036148 1.42469376 -10.40806671 1.40798126 -9.60206604 1.39076233 C-5.96669006 1.29015009 -3.38380642 0.14099193 0 0 Z " fill="#585858" transform="translate(374,7.875)"/>
<path d="M0 0 C0.33 0 0.66 0 1 0 C1.02505615 0.76666992 1.0501123 1.53333984 1.07592773 2.32324219 C1.19201423 5.79899283 1.31468366 9.27448092 1.4375 12.75 C1.47681641 13.9565625 1.51613281 15.163125 1.55664062 16.40625 C1.59853516 17.56640625 1.64042969 18.7265625 1.68359375 19.921875 C1.72025146 20.99018555 1.75690918 22.05849609 1.79467773 23.15917969 C1.90373849 25.89214316 1.90373849 25.89214316 2.54101562 28.04101562 C3.1429673 30.61019662 2.90796441 32.79802392 2.66015625 35.421875 C2.56669922 36.44667969 2.47324219 37.47148437 2.37695312 38.52734375 C2.27318359 39.59082031 2.16941406 40.65429688 2.0625 41.75 C1.91264648 43.36841797 1.91264648 43.36841797 1.75976562 45.01953125 C1.51252495 47.68031187 1.25905292 50.34034775 1 53 C0.67 53 0.34 53 0 53 C0 35.51 0 18.02 0 0 Z " fill="#0F0F11" transform="translate(7,333)"/>
<path d="M0 0 C1.89492187 0.01353516 1.89492187 0.01353516 3.828125 0.02734375 C4.79234375 0.03894531 5.7565625 0.05054688 6.75 0.0625 C6.42 1.0525 6.09 2.0425 5.75 3.0625 C6.74 3.3925 7.73 3.7225 8.75 4.0625 C1.82 4.0625 -5.11 4.0625 -12.25 4.0625 C-11.92 3.0725 -11.59 2.0825 -11.25 1.0625 C-7.70622246 -0.44274531 -3.78293864 -0.03502721 0 0 Z " fill="#050405" transform="translate(191.25,5.9375)"/>
<path d="M0 0 C14.19 0 28.38 0 43 0 C43 0.33 43 0.66 43 1 C39.37 1 35.74 1 32 1 C32.495 2.485 32.495 2.485 33 4 C27.555 3.505 27.555 3.505 22 3 C22 2.34 22 1.68 22 1 C14.74 1 7.48 1 0 1 C0 0.67 0 0.34 0 0 Z " fill="#555556" transform="translate(228,411)"/>
<path d="M0 0 C0.99 0.33 1.98 0.66 3 1 C2.67 1.99 2.34 2.98 2 4 C4.31 4.33 6.62 4.66 9 5 C7 7 7 7 4 8 C2.78130071 10.50447516 2.78130071 10.50447516 2 13 C0.68 12.34 -0.64 11.68 -2 11 C-2.28571429 3.57142857 -2.28571429 3.57142857 0 0 Z " fill="#574E4B" transform="translate(37,185)"/>
<path d="M0 0 C0.99 0.66 1.98 1.32 3 2 C-0.28352633 4.98045412 -2.33585394 5.3410278 -6.71875 5.14453125 C-7.81574219 5.09876953 -8.91273438 5.05300781 -10.04296875 5.00585938 C-11.75419922 4.91014648 -11.75419922 4.91014648 -13.5 4.8125 C-14.64082031 4.76802734 -15.78164063 4.72355469 -16.95703125 4.67773438 C-25.45321631 4.27339184 -25.45321631 4.27339184 -30 2 C-20.1 2 -10.2 2 0 2 C0 1.34 0 0.68 0 0 Z " fill="#0D0D0F" transform="translate(586,410)"/>
<path d="M0 0 C3.37082558 1.44463953 5.58037292 3.24663125 8 6 C8.33 6.99 8.66 7.98 9 9 C5.67465243 10.10844919 3.37817425 9.84454356 0 9 C-0.66 9.99 -1.32 10.98 -2 12 C-1.44687265 7.97007218 -0.8441938 3.97977076 0 0 Z " fill="#6E6965" transform="translate(27,101)"/>
<path d="M0 0 C0.33 0 0.66 0 1 0 C1 1.98 1 3.96 1 6 C14.53 6 28.06 6 42 6 C42 6.33 42 6.66 42 7 C40.94087402 7.02505615 39.88174805 7.0501123 38.79052734 7.07592773 C34.84314873 7.17043924 30.89592824 7.27055135 26.94873047 7.37231445 C25.2436901 7.41549846 23.53861108 7.45718447 21.83349609 7.49731445 C19.37585833 7.55541972 16.91841216 7.61899586 14.4609375 7.68359375 C13.32620499 7.70866249 13.32620499 7.70866249 12.16854858 7.73423767 C8.02740613 7.84890753 4.06739407 8.20958663 0 9 C-1.53445094 5.93109813 -0.54984289 3.29905734 0 0 Z " fill="#3B3B3C" transform="translate(9,405)"/>
<path d="M0 0 C8.58 0 17.16 0 26 0 C26 0.33 26 0.66 26 1 C18.41 1.33 10.82 1.66 3 2 C2.67 5.63 2.34 9.26 2 13 C1.34 13 0.68 13 0 13 C0 8.71 0 4.42 0 0 Z " fill="#737373" transform="translate(8,10)"/>
<path d="M0 0 C2.69082872 0.17635452 5.32851446 0.61835921 8 1 C8 1.99 8 2.98 8 4 C7.01 4.495 7.01 4.495 6 5 C5.34 4.67 4.68 4.34 4 4 C4.33 5.32 4.66 6.64 5 8 C3.02 8.33 1.04 8.66 -1 9 C-1.09765625 2.84765625 -1.09765625 2.84765625 -1 1 C-0.67 0.67 -0.34 0.34 0 0 Z " fill="#686057" transform="translate(374,86)"/>
<path d="M0 0 C0.33 0.99 0.66 1.98 1 3 C-1.64 3.66 -4.28 4.32 -7 5 C-6.67 5.66 -6.34 6.32 -6 7 C-5.95977609 9.3329866 -5.95679753 11.66706666 -6 14 C-6.99 14.495 -6.99 14.495 -8 15 C-8.66 14.34 -9.32 13.68 -10 13 C-9.6875 10.6875 -9.6875 10.6875 -9 8 C-8.896875 7.13375 -8.79375 6.2675 -8.6875 5.375 C-8 3 -8 3 -6.1875 1.1875 C-4 0 -4 0 0 0 Z " fill="#6D6965" transform="translate(239,22)"/>
<path d="M0 0 C0.66 0 1.32 0 2 0 C2.23793634 18.34753593 2.23793634 18.34753593 1 24 C0.34 24.66 -0.32 25.32 -1 26 C-1.0291544 22.60418484 -1.04685068 19.20840214 -1.0625 15.8125 C-1.07087891 14.85279297 -1.07925781 13.89308594 -1.08789062 12.90429688 C-1.09111328 11.97294922 -1.09433594 11.04160156 -1.09765625 10.08203125 C-1.10289307 9.22843018 -1.10812988 8.3748291 -1.11352539 7.49536133 C-0.99579323 4.90753253 -0.57107044 2.52338047 0 0 Z " fill="#514B47" transform="translate(66,225)"/>
<path d="M0 0 C1.60875 0.11794922 1.60875 0.11794922 3.25 0.23828125 C6 0.6875 6 0.6875 8 2.6875 C4.43954823 3.87431726 1.56191663 3.78439832 -2.1875 3.75 C-3.45980469 3.74097656 -4.73210937 3.73195313 -6.04296875 3.72265625 C-7.50669922 3.70525391 -7.50669922 3.70525391 -9 3.6875 C-8.67 2.6975 -8.34 1.7075 -8 0.6875 C-5.20232513 -0.71133743 -3.1013728 -0.24974997 0 0 Z " fill="#706B68" transform="translate(390,395.3125)"/>
<path d="M0 0 C0 0.66 0 1.32 0 2 C-0.99580078 2.27263672 -0.99580078 2.27263672 -2.01171875 2.55078125 C-6.7928384 3.91182991 -10.78106582 5.3152237 -15 8 C-15.99 8 -16.98 8 -18 8 C-17.67 7.01 -17.34 6.02 -17 5 C-16.01 4.67 -15.02 4.34 -14 4 C-13.319375 3.2575 -13.319375 3.2575 -12.625 2.5 C-9.17364642 -0.68586484 -4.45125962 -0.10351767 0 0 Z " fill="#6C6664" transform="translate(138,257)"/>
<path d="M0 0 C0.33 0.99 0.66 1.98 1 3 C-0.27007214 3.9593419 -1.54108919 4.91743294 -2.8125 5.875 C-3.87404297 6.67550781 -3.87404297 6.67550781 -4.95703125 7.4921875 C-9.75597892 11.03404945 -9.75597892 11.03404945 -12.6875 10.625 C-13.450625 10.41875 -14.21375 10.2125 -15 10 C-15 9.01 -15 8.02 -15 7 C-7.5 4.5 -7.5 4.5 0 2 C0 1.34 0 0.68 0 0 Z " fill="#6E6967" transform="translate(82,113)"/>
<path d="M0 0 C0 0.66 0 1.32 0 2 C-2.4788213 2.19389096 -4.95780931 2.38040123 -7.4375 2.5625 C-8.14455078 2.61857422 -8.85160156 2.67464844 -9.58007812 2.73242188 C-11.38427837 2.86190993 -13.19231952 2.93521608 -15 3 C-15.33 2.67 -15.66 2.34 -16 2 C-17.68183948 1.76712992 -19.3712416 1.58735834 -21.0625 1.4375 C-22.44115234 1.31181641 -22.44115234 1.31181641 -23.84765625 1.18359375 C-24.91306641 1.09271484 -24.91306641 1.09271484 -26 1 C-26 0.67 -26 0.34 -26 0 C-17.2478303 -1.36752652 -8.77387981 -0.70757095 0 0 Z " fill="#0F0F11" transform="translate(546,412)"/>
<path d="M0 0 C0 0.66 0 1.32 0 2 C0.66 2.33 1.32 2.66 2 3 C-2.61012242 5.95047835 -5.36529617 7.5497272 -11 7 C-10.34 6.34 -9.68 5.68 -9 5 C-9 4.01 -9 3.02 -9 2 C-3.375 0 -3.375 0 0 0 Z " fill="#6E6966" transform="translate(431,402)"/>
<path d="M0 0 C4.09621053 2.28905883 7.53415091 4.85655548 11 8 C11 8.66 11 9.32 11 10 C9.35 10.33 7.7 10.66 6 11 C6 10.34 6 9.68 6 9 C5.360625 8.7525 4.72125 8.505 4.0625 8.25 C2 7 2 7 1.3125 5.0625 C1.1578125 4.0415625 1.1578125 4.0415625 1 3 C0.67 2.01 0.34 1.02 0 0 Z " fill="#6A625F" transform="translate(521,228)"/>
<path d="M0 0 C3.22914752 -0.02917228 6.45826083 -0.04685663 9.6875 -0.0625 C10.59951172 -0.07087891 11.51152344 -0.07925781 12.45117188 -0.08789062 C13.33740234 -0.09111328 14.22363281 -0.09433594 15.13671875 -0.09765625 C15.94842529 -0.10289307 16.76013184 -0.10812988 17.59643555 -0.11352539 C20.14864673 0.0070209 22.51026137 0.440051 25 1 C21.8810224 3.0793184 21.39886518 3.24084548 17.91015625 3.046875 C16.73356445 2.98306641 16.73356445 2.98306641 15.53320312 2.91796875 C14.71787109 2.86253906 13.90253906 2.80710937 13.0625 2.75 C12.25103516 2.71003906 11.43957031 2.67007813 10.60351562 2.62890625 C6.5185767 2.380928 3.62432496 2.02444364 0 0 Z " fill="#524B48" transform="translate(152,86)"/>
<path d="M0 0 C0.66 0 1.32 0 2 0 C2 0.66 2 1.32 2 2 C1.34 2 0.68 2 0 2 C0 1.34 0 0.68 0 0 Z M-1 2 C-0.10869587 4.6739124 0.47731534 7.23723823 1 10 C-1.35438733 11.42944945 -2.48032433 12.08661261 -5.25 11.625 C-5.8275 11.41875 -6.405 11.2125 -7 11 C-6.8125 8.625 -6.8125 8.625 -6 6 C-3.4375 4.6875 -3.4375 4.6875 -1 4 C-1 3.34 -1 2.68 -1 2 Z " fill="#5F5956" transform="translate(38,38)"/>
<path d="M0 0 C0.33 0 0.66 0 1 0 C1.06058594 0.64066406 1.12117188 1.28132813 1.18359375 1.94140625 C1.67209412 6.98423313 2.23779286 11.9912102 3 17 C2.731875 16.360625 2.46375 15.72125 2.1875 15.0625 C1.11332248 12.66868314 1.11332248 12.66868314 -2 12 C-2.33 12.66 -2.66 13.32 -3 14 C-3.66 11.03 -4.32 8.06 -5 5 C-4.67 5.66 -4.34 6.32 -4 7 C-2.68 7 -1.36 7 0 7 C0 4.69 0 2.38 0 0 Z " fill="#A09E9E" transform="translate(26,81)"/>
<path d="M0 0 C1.34171451 0.29781046 2.67318947 0.64158306 4 1 C6.08071366 1.36924582 8.16431713 1.72244301 10.25 2.0625 C11.32765625 2.23910156 12.4053125 2.41570312 13.515625 2.59765625 C14.33546875 2.73042969 15.1553125 2.86320312 16 3 C16 3.99 16 4.98 16 6 C13.72735496 5.74481529 11.45687295 5.47030939 9.1875 5.1875 C7.92292969 5.03667969 6.65835938 4.88585937 5.35546875 4.73046875 C2.08474189 4.01844789 0.941158 3.63391327 -1 1 C-0.67 0.67 -0.34 0.34 0 0 Z " fill="#6B6564" transform="translate(210,263)"/>
<path d="M0 0 C0.99 0 1.98 0 3 0 C3 4.29 3 8.58 3 13 C2.01 13 1.02 13 0 13 C0 8.71 0 4.42 0 0 Z " fill="#2C2C2E" transform="translate(7,67)"/>
<path d="M0 0 C1.32 0.33 2.64 0.66 4 1 C4.33 3.31 4.66 5.62 5 8 C6.65 8.33 8.3 8.66 10 9 C10 9.33 10 9.66 10 10 C4.61267606 10.35915493 4.61267606 10.35915493 2.1875 8.9375 C0.44270397 6.09072753 0.30957852 3.28153235 0 0 Z " fill="#050405" transform="translate(578,0)"/>
<path d="M0 0 C7.26 0 14.52 0 22 0 C22 0.66 22 1.32 22 2 C18.97138044 3.00953985 17.63915009 3.01252048 14.55078125 2.66015625 C13.70322266 2.56669922 12.85566406 2.47324219 11.98242188 2.37695312 C11.10134766 2.27318359 10.22027344 2.16941406 9.3125 2.0625 C8.41982422 1.96259766 7.52714844 1.86269531 6.60742188 1.75976562 C4.40421779 1.51234698 2.20188219 1.25887721 0 1 C0 0.67 0 0.34 0 0 Z " fill="#504B48" transform="translate(336,90)"/>
<path d="M0 0 C0.66 0 1.32 0 2 0 C2.33 1.32 2.66 2.64 3 4 C2.34 4 1.68 4 1 4 C1.7763932 7.0745356 1.7763932 7.0745356 4 9 C3.34 9.66 2.68 10.32 2 11 C0.68 10.01 -0.64 9.02 -2 8 C-1.125 1.125 -1.125 1.125 0 0 Z " fill="#3F3D39" transform="translate(52,173)"/>
<path d="M0 0 C6.27 0 12.54 0 19 0 C19 0.33 19 0.66 19 1 C14.71 1 10.42 1 6 1 C5.67 2.65 5.34 4.3 5 6 C3.68 5.67 2.36 5.34 1 5 C0.67 3.35 0.34 1.7 0 0 Z " fill="#67615D" transform="translate(208,40)"/>
<path d="M0 0 C0.86625 0.37125 0.86625 0.37125 1.75 0.75 C0.75 2.75 0.75 2.75 -1.1875 4.5625 C-3.36712212 6.87422043 -4.25417608 8.76252825 -5.25 11.75 C-5.58 11.75 -5.91 11.75 -6.25 11.75 C-6.73590022 4.46149675 -6.73590022 4.46149675 -4.5 1.1875 C-2.25 -0.25 -2.25 -0.25 0 0 Z " fill="#706B69" transform="translate(40.25,180.25)"/>
<path d="M0 0 C0.66 0 1.32 0 2 0 C1.67 3.3 1.34 6.6 1 10 C-0.32 10 -1.64 10 -3 10 C-3 9.34 -3 8.68 -3 8 C-3.66 8 -4.32 8 -5 8 C-5 7.01 -5 6.02 -5 5 C-3.35 5 -1.7 5 0 5 C0 3.35 0 1.7 0 0 Z " fill="#686361" transform="translate(25,78)"/>
<path d="M0 0 C3.63 0 7.26 0 11 0 C11 0.99 11 1.98 11 3 C7.04 3 3.08 3 -1 3 C-0.67 2.01 -0.34 1.02 0 0 Z " fill="#0D0906" transform="translate(435,7)"/>
<path d="M0 0 C2.31 0.66 4.62 1.32 7 2 C7.33 1.34 7.66 0.68 8 0 C8.99 2.31 9.98 4.62 11 7 C9.7315625 6.5359375 9.7315625 6.5359375 8.4375 6.0625 C4.9502146 4.98461179 1.61822465 4.43418696 -2 4 C-1.34 2.68 -0.68 1.36 0 0 Z " fill="#78736F" transform="translate(302,306)"/>
<path d="M0 0 C0.99 0.495 0.99 0.495 2 1 C2 1.66 2 2.32 2 3 C2.99 2.67 3.98 2.34 5 2 C5 3.98 5 5.96 5 8 C3.68 8 2.36 8 1 8 C0 7 0 7 -0.0625 3.4375 C-0.041875 2.303125 -0.02125 1.16875 0 0 Z " fill="#4A453C" transform="translate(35,189)"/>
<path d="M0 0 C0.66 0.33 1.32 0.66 2 1 C2.75 4.375 2.75 4.375 3 8 C2.01 9.485 2.01 9.485 1 11 C0.34 10.67 -0.32 10.34 -1 10 C-1.125 2.25 -1.125 2.25 0 0 Z " fill="#534E4A" transform="translate(364,338)"/>
<path d="M0 0 C1.98 0 3.96 0 6 0 C6 1.98 6 3.96 6 6 C4.68 6 3.36 6 2 6 C0 3 0 3 0 0 Z " fill="#504C49" transform="translate(55,197)"/>
<path d="M0 0 C1.1446875 1.175625 1.1446875 1.175625 2.3125 2.375 C4.90891805 5.07257717 4.90891805 5.07257717 8 7 C7.34 7 6.68 7 6 7 C5.67 8.32 5.34 9.64 5 11 C3.68 11.33 2.36 11.66 1 12 C1 11.34 1 10.68 1 10 C1.99 10 2.98 10 4 10 C4 8.68 4 7.36 4 6 C1.525 5.01 1.525 5.01 -1 4 C-0.67 2.68 -0.34 1.36 0 0 Z " fill="#6E6867" transform="translate(288,27)"/>
<path d="M0 0 C1.32 0.66 2.64 1.32 4 2 C4 2.66 4 3.32 4 4 C3.34 4 2.68 4 2 4 C1.67 4.99 1.34 5.98 1 7 C0.01 6.67 -0.98 6.34 -2 6 C-2.6875 3.9375 -2.6875 3.9375 -3 2 C-2.01 1.34 -1.02 0.68 0 0 Z " fill="#2F2F2F" transform="translate(33,204)"/>
<path d="M0 0 C0.61875 0.804375 1.2375 1.60875 1.875 2.4375 C5.49443249 6.15135247 10.07531881 5.89481263 15 6 C15 6.33 15 6.66 15 7 C3.17005924 7.86140345 3.17005924 7.86140345 -0.75 4.5 C-1.4925 3.675 -2.235 2.85 -3 2 C-2.01 1.34 -1.02 0.68 0 0 Z " fill="#736D69" transform="translate(127,81)"/>
<path d="M0 0 C2.94982021 1.14186589 4.88437775 2.67281553 7 5 C3.23375329 6.25541557 1.62811066 5.37061958 -2 4 C-2 3.01 -2 2.02 -2 1 C-1.34 0.67 -0.68 0.34 0 0 Z " fill="#66615C" transform="translate(443,175)"/>
<path d="M0 0 C0.99 0 1.98 0 3 0 C5.48063781 9.41002278 5.48063781 9.41002278 4 14 C3.67 14 3.34 14 3 14 C2.01 9.38 1.02 4.76 0 0 Z " fill="#75726E" transform="translate(68,55)"/>
<path d="M0 0 C0 0.99 0 1.98 0 3 C-4.98062116 4.66020705 -9.95672414 3.06978579 -15 2 C-15 1.67 -15 1.34 -15 1 C-10.05 0.67 -5.1 0.34 0 0 Z " fill="#534C49" transform="translate(309,33)"/>
<path d="M0 0 C0.66 0 1.32 0 2 0 C2 0.66 2 1.32 2 2 C3.65 2 5.3 2 7 2 C5.84826645 4.46800047 4.95216435 6.04783565 3 8 C3 6.68 3 5.36 3 4 C0.03 3.67 -2.94 3.34 -6 3 C-6 2.67 -6 2.34 -6 2 C-4.02 2 -2.04 2 0 2 C0 1.34 0 0.68 0 0 Z " fill="#3D3837" transform="translate(255,8)"/>
<path d="M0 0 C0.66 0.99 1.32 1.98 2 3 C1.67 3.99 1.34 4.98 1 6 C1.66 6.33 2.32 6.66 3 7 C2.01 7 1.02 7 0 7 C-0.33 8.32 -0.66 9.64 -1 11 C-1.99 10.67 -2.98 10.34 -4 10 C-2.68 6.7 -1.36 3.4 0 0 Z " fill="#6C6562" transform="translate(365,358)"/>
<path d="M0 0 C2.1875 0.3125 2.1875 0.3125 4 1 C4 1.99 4 2.98 4 4 C2.1875 4.625 2.1875 4.625 0 5 C-0.99 4.34 -1.98 3.68 -3 3 C-1.75 1.4375 -1.75 1.4375 0 0 Z " fill="#716C6A" transform="translate(582,291)"/>
<path d="M0 0 C0.99 0.33 1.98 0.66 3 1 C3 3.64 3 6.28 3 9 C2.34 9 1.68 9 1 9 C-0.4783226 6.04335481 -0.06032783 3.25770263 0 0 Z " fill="#373738" transform="translate(7,44)"/>
<path d="M0 0 C0.70125 0.474375 1.4025 0.94875 2.125 1.4375 C5.16081337 3.08739857 7.59168786 3.60368464 11 4 C6.75 6.83333333 6.75 6.83333333 4 7 C1.75 5.25 1.75 5.25 0 3 C0 2.01 0 1.02 0 0 Z " fill="#716C68" transform="translate(271,17)"/>
<path d="M0 0 C1.485 0.99 1.485 0.99 3 2 C2.67 4.97 2.34 7.94 2 11 C1.01 11.33 0.02 11.66 -1 12 C-0.01 9.03 0.98 6.06 2 3 C1.34 3 0.68 3 0 3 C0 2.01 0 1.02 0 0 Z " fill="#3F3837" transform="translate(585,260)"/>
<path d="M0 0 C2.97 0.33 5.94 0.66 9 1 C9 1.66 9 2.32 9 3 C6.08517222 3.80967438 4.53886783 4.21845993 1.6875 3.0625 C1.130625 2.711875 0.57375 2.36125 0 2 C0 1.34 0 0.68 0 0 Z " fill="#6E6A68" transform="translate(190,250)"/>
<path d="M0 0 C2 3 2 3 2 7 C3.4166747 8.7511573 3.4166747 8.7511573 5 10 C3.68 10 2.36 10 1 10 C0.63720544 8.71073008 0.28503302 7.41846728 -0.0625 6.125 C-0.35833984 5.04605469 -0.35833984 5.04605469 -0.66015625 3.9453125 C-1 2 -1 2 0 0 Z " fill="#544E4A" transform="translate(83,109)"/>
<path d="M0 0 C1.67542976 0.28604898 3.34385343 0.61781233 5 1 C3.75 3 3.75 3 2 5 C0.68 5 -0.64 5 -2 5 C-1.125 1.125 -1.125 1.125 0 0 Z " fill="#716D68" transform="translate(84,106)"/>
<path d="M0 0 C1.485 0.99 1.485 0.99 3 2 C2.67 3.65 2.34 5.3 2 7 C1.01 6.67 0.02 6.34 -1 6 C-0.67 4.02 -0.34 2.04 0 0 Z " fill="#6E6B68" transform="translate(316,36)"/>
<path d="M0 0 C3.63 1.32 7.26 2.64 11 4 C10.01 4.66 9.02 5.32 8 6 C4.3125 5.125 4.3125 5.125 1 4 C0.67 2.68 0.34 1.36 0 0 Z " fill="#74706E" transform="translate(86,34)"/>
<path d="M0 0 C0 0.66 0 1.32 0 2 C-3.465 3.485 -3.465 3.485 -7 5 C-7.66 4.34 -8.32 3.68 -9 3 C-3.375 0 -3.375 0 0 0 Z " fill="#6C6865" transform="translate(468,368)"/>
<path d="M0 0 C0.33 0.99 0.66 1.98 1 3 C1.99 3.33 2.98 3.66 4 4 C4 6.97 4 9.94 4 13 C3.67 13 3.34 13 3 13 C2.87625 11.081875 2.87625 11.081875 2.75 9.125 C2.54130069 6.94666582 2.54130069 6.94666582 2 5 C0.07935207 3.4100567 0.07935207 3.4100567 -2 3 C-2 2.34 -2 1.68 -2 1 C-1.34 0.67 -0.68 0.34 0 0 Z " fill="#524C4A" transform="translate(364,368)"/>
<path d="M0 0 C0.94875 0.350625 1.8975 0.70125 2.875 1.0625 C1.555 1.3925 0.235 1.7225 -1.125 2.0625 C-1.455 3.7125 -1.785 5.3625 -2.125 7.0625 C-2.455 7.0625 -2.785 7.0625 -3.125 7.0625 C-3.125 5.4125 -3.125 3.7625 -3.125 2.0625 C-4.115 2.3925 -5.105 2.7225 -6.125 3.0625 C-5.795 2.0725 -5.465 1.0825 -5.125 0.0625 C-3.125 -0.9375 -3.125 -0.9375 0 0 Z " fill="#8B8584" transform="translate(551.125,286.9375)"/>
<path d="M0 0 C4.95 1.98 4.95 1.98 10 4 C10 4.33 10 4.66 10 5 C7.36 5 4.72 5 2 5 C2 4.01 2 3.02 2 2 C1.34 2 0.68 2 0 2 C0 1.34 0 0.68 0 0 Z " fill="#7C7875" transform="translate(541,243)"/>
<path d="M0 0 C1.32 0.33 2.64 0.66 4 1 C4 1.66 4 2.32 4 3 C4.99 3.33 5.98 3.66 7 4 C4.92446352 4.5534764 3.15634036 5 1 5 C0.67 3.35 0.34 1.7 0 0 Z " fill="#7A7670" transform="translate(494,210)"/>
<path d="M0 0 C0.33 0.66 0.66 1.32 1 2 C-1.31 3.65 -3.62 5.3 -6 7 C-6.33 6.01 -6.66 5.02 -7 4 C-4.61426621 2.10786631 -2.92824652 0.97608217 0 0 Z " fill="#53504E" transform="translate(200,51)"/>
<path d="M0 0 C0.66 0.33 1.32 0.66 2 1 C0.71034824 2.37562854 -0.62689293 3.70766393 -2 5 C-2.66 5 -3.32 5 -4 5 C-4 5.66 -4 6.32 -4 7 C-4.99 7 -5.98 7 -7 7 C-5.66667905 3.00003714 -3.5042173 2.16217663 0 0 Z " fill="#78756E" transform="translate(36,39)"/>
<path d="M0 0 C0.928125 0.20625 1.85625 0.4125 2.8125 0.625 C2.4825 1.615 2.1525 2.605 1.8125 3.625 C-0.8275 2.965 -3.4675 2.305 -6.1875 1.625 C-3.1875 -0.375 -3.1875 -0.375 0 0 Z " fill="#746C6A" transform="translate(561.1875,289.375)"/>
<path d="M0 0 C0 0.66 0 1.32 0 2 C-2.97 2.66 -5.94 3.32 -9 4 C-9 3.01 -9 2.02 -9 1 C-5.8035914 -0.06546953 -3.34252724 -0.07427838 0 0 Z " fill="#776F69" transform="translate(138,257)"/>
<path d="M0 0 C0.99 0 1.98 0 3 0 C3 0.66 3 1.32 3 2 C4.32 1.67 5.64 1.34 7 1 C7.33 1.66 7.66 2.32 8 3 C5 5 5 5 2.8125 4.625 C2.214375 4.41875 1.61625 4.2125 1 4 C1.33 3.01 1.66 2.02 2 1 C1.34 0.67 0.68 0.34 0 0 Z " fill="#665D5B" transform="translate(64,121)"/>
<path d="M0 0 C1.32 0.33 2.64 0.66 4 1 C4 2.32 4 3.64 4 5 C3.01 5.33 2.02 5.66 1 6 C0 5 0 5 -0.0625 2.4375 C-0.041875 1.633125 -0.02125 0.82875 0 0 Z " fill="#454344" transform="translate(24,93)"/>
<path d="M0 0 C-0.33 1.32 -0.66 2.64 -1 4 C-2.98 4 -4.96 4 -7 4 C-7 3.01 -7 2.02 -7 1 C-3.375 -1.125 -3.375 -1.125 0 0 Z " fill="#838075" transform="translate(249,23)"/>
<path d="M0 0 C0.66 0 1.32 0 2 0 C1.67 0.66 1.34 1.32 1 2 C0.67 1.34 0.34 0.68 0 0 Z M-2 1 C-1.01 1.33 -0.02 1.66 1 2 C1.6875 4.0625 1.6875 4.0625 2 6 C-0.97 5.505 -0.97 5.505 -4 5 C-3.34 3.68 -2.68 2.36 -2 1 Z " fill="#59524E" transform="translate(421,402)"/>
<path d="M0 0 C0.86625 0.556875 0.86625 0.556875 1.75 1.125 C-3.875 4.125 -3.875 4.125 -7.25 4.125 C-6.25 1.125 -6.25 1.125 -4.4375 -0.1875 C-2.25 -0.875 -2.25 -0.875 0 0 Z " fill="#7F7B79" transform="translate(95.25,291.875)"/>
<path d="M0 0 C2.475 0.495 2.475 0.495 5 1 C5.33 2.32 5.66 3.64 6 5 C5.34 5 4.68 5 4 5 C3.67 5.66 3.34 6.32 3 7 C3 5.35 3 3.7 3 2 C2.01 1.67 1.02 1.34 0 1 C0 0.67 0 0.34 0 0 Z " fill="#908C8A" transform="translate(404,403)"/>
<path d="M0 0 C1.32 0.66 2.64 1.32 4 2 C3.67 4.64 3.34 7.28 3 10 C2.67 10 2.34 10 2 10 C2 7.69 2 5.38 2 3 C1.01 2.67 0.02 2.34 -1 2 C-0.67 1.34 -0.34 0.68 0 0 Z " fill="#7F7876" transform="translate(288,287)"/>
<path d="M0 0 C2.88437779 1.29299694 4.87219421 2.65941363 7 5 C5.35 5 3.7 5 2 5 C1.34 3.35 0.68 1.7 0 0 Z " fill="#736E6D" transform="translate(569,252)"/>
<path d="M0 0 C0.99 1.32 1.98 2.64 3 4 C2.01 4.33 1.02 4.66 0 5 C-0.33 4.01 -0.66 3.02 -1 2 C-3.31 2 -5.62 2 -8 2 C-8 1.67 -8 1.34 -8 1 C-5.36 0.67 -2.72 0.34 0 0 Z " fill="#7E7D7B" transform="translate(49,178)"/>
<path d="M0 0 C0.99 0 1.98 0 3 0 C1.79618552 2.49361571 0.54571278 4.68143083 -1 7 C-1.66 7 -2.32 7 -3 7 C-1.125 2.25 -1.125 2.25 0 0 Z " fill="#726C69" transform="translate(23,122)"/>
<path d="M0 0 C1.9375 0.3125 1.9375 0.3125 4 1 C4.33 1.99 4.66 2.98 5 4 C5.66 4.33 6.32 4.66 7 5 C4.625 4.75 4.625 4.75 2 4 C0.6875 1.9375 0.6875 1.9375 0 0 Z " fill="#726D69" transform="translate(327,330)"/>
<path d="M0 0 C2.31 0.33 4.62 0.66 7 1 C7 1.66 7 2.32 7 3 C5.02 3 3.04 3 1 3 C0.67 2.01 0.34 1.02 0 0 Z " fill="#4E4845" transform="translate(566,294)"/>
<path d="M0 0 C2.63840764 1.03937271 3.54887645 2.4663835 5.0625 4.8125 C3.7425 4.8125 2.4225 4.8125 1.0625 4.8125 C0.7325 4.1525 0.4025 3.4925 0.0625 2.8125 C-1.95419827 1.67899466 -1.95419827 1.67899466 -3.9375 0.8125 C-1.9375 -0.1875 -1.9375 -0.1875 0 0 Z " fill="#554C49" transform="translate(552.9375,285.1875)"/>
<path d="M0 0 C0.66 0 1.32 0 2 0 C2.33 1.32 2.66 2.64 3 4 C2.34 4 1.68 4 1 4 C0.67 4.66 0.34 5.32 0 6 C-0.66 5.34 -1.32 4.68 -2 4 C-1.34 2.68 -0.68 1.36 0 0 Z " fill="#4E4848" transform="translate(52,173)"/>
<path d="M0 0 C1.32 0 2.64 0 4 0 C3.34 3.3 2.68 6.6 2 10 C1.67 10 1.34 10 1 10 C0.67 6.7 0.34 3.4 0 0 Z " fill="#7A7874" transform="translate(192,66)"/>
<path d="M0 0 C3.375 -0.125 3.375 -0.125 7 0 C7.66 0.66 8.32 1.32 9 2 C4.545 2.495 4.545 2.495 0 3 C0 2.01 0 1.02 0 0 Z " fill="#848281" transform="translate(44,44)"/>
<path d="M0 0 C2.97 0.33 5.94 0.66 9 1 C9 1.33 9 1.66 9 2 C7.02 2 5.04 2 3 2 C3 2.66 3 3.32 3 4 C1.68 3.34 0.36 2.68 -1 2 C-0.67 1.34 -0.34 0.68 0 0 Z " fill="#0A090C" transform="translate(246,8)"/>
<path d="M0 0 C1.98 0.495 1.98 0.495 4 1 C3.67 1.66 3.34 2.32 3 3 C3.99 3.33 4.98 3.66 6 4 C3.69 4 1.38 4 -1 4 C-0.67 2.68 -0.34 1.36 0 0 Z " fill="#0C0C0E" transform="translate(194,6)"/>
<path d="M0 0 C0.99 0 1.98 0 3 0 C3.33 1.65 3.66 3.3 4 5 C3.01 5.33 2.02 5.66 1 6 C0.67 4.02 0.34 2.04 0 0 Z " fill="#06060A" transform="translate(400,0)"/>
</svg>
