<?xml version="1.0" encoding="UTF-8"?>
<svg version="1.1" xmlns="http://www.w3.org/2000/svg" width="126" height="86">
<path d="M0 0 C3.11569405 1.40171536 5.4114956 3.08408908 7.9375 5.375 C10.88821097 8.0168515 13.87744637 10.56050498 17 13 C16.91796875 14.7578125 16.91796875 14.7578125 16 17 C13.75860094 18.51405764 11.7186601 19.69767396 9.3125 20.875 C8.69955078 21.20757813 8.08660156 21.54015625 7.45507812 21.8828125 C4.28363357 23.47021635 2.4207509 24.08297995 -1.08984375 23.390625 C-4.07366073 21.96480105 -6.99049507 20.49313691 -9.875 18.875 C-10.84179688 18.33617188 -11.80859375 17.79734375 -12.8046875 17.2421875 C-13.52914062 16.83226563 -14.25359375 16.42234375 -15 16 C-11.96900954 9.20998706 -5.68240917 4.57364641 0 0 Z " fill="#9B8B83" transform="translate(64,6)"/>
<path d="M0 0 C3.08637724 1.33731363 6.00378001 2.92092403 8.9375 4.5625 C9.71673828 4.98724609 10.49597656 5.41199219 11.29882812 5.84960938 C13.20449805 6.89012854 15.10300722 7.94374418 17 9 C17 9.66 17 10.32 17 11 C14.16888282 11.67753232 11.33570624 12.34218727 8.5 13 C7.70851562 13.19078125 6.91703125 13.3815625 6.1015625 13.578125 C-2.70598439 15.5995292 -9.7520315 15.10863084 -18.5 13 C-19.32242188 12.80921875 -20.14484375 12.6184375 -20.9921875 12.421875 C-22.99662407 11.95572696 -24.99858863 11.47897024 -27 11 C-27 10.34 -27 9.68 -27 9 C-21.66666667 6.33333333 -16.33333333 3.66666667 -11 1 C-10.32557861 0.6280249 -9.65115723 0.2560498 -8.95629883 -0.12719727 C-5.71346366 -1.57398819 -3.40564711 -0.81386233 0 0 Z " fill="#674F41" transform="translate(70,35)"/>
<path d="M0 0 C2.21359497 1.03645019 3.73146416 2.26937458 5.53125 3.92578125 C6.21574219 4.5496875 6.90023437 5.17359375 7.60546875 5.81640625 C8.34410156 6.491875 9.08273438 7.16734375 9.84375 7.86328125 C10.67519531 8.58 11.50664063 9.29671875 12.36328125 10.03515625 C13.18183594 10.7415625 14.00039062 11.44796875 14.84375 12.17578125 C15.606875 12.83191406 16.37 13.48804688 17.15625 14.1640625 C18.84375 15.86328125 18.84375 15.86328125 18.84375 17.86328125 C13.67758858 19.83134274 9.45117062 20.83817654 4.14306641 18.85351562 C3.25280762 18.39267578 2.36254883 17.93183594 1.4453125 17.45703125 C-0.01455078 16.71259766 -0.01455078 16.71259766 -1.50390625 15.953125 C-2.50292969 15.42847656 -3.50195312 14.90382813 -4.53125 14.36328125 C-5.55347656 13.83863281 -6.57570313 13.31398438 -7.62890625 12.7734375 C-10.14379463 11.48073786 -12.65238077 10.17716137 -15.15625 8.86328125 C-14.15625 5.86328125 -14.15625 5.86328125 -11.57421875 4.22265625 C-10.50816406 3.6915625 -9.44210938 3.16046875 -8.34375 2.61328125 C-7.28542969 2.071875 -6.22710937 1.53046875 -5.13671875 0.97265625 C-2.15625 -0.13671875 -2.15625 -0.13671875 0 0 Z " fill="#86726A" transform="translate(85.15625,24.13671875)"/>
<path d="M0 0 C4.64239943 1.94980776 9.07991877 4.29867466 13.125 7.3125 C13.125 7.9725 13.125 8.6325 13.125 9.3125 C9.68743614 11.20717407 6.22245071 13.04516558 2.75 14.875 C1.30173828 15.67454102 1.30173828 15.67454102 -0.17578125 16.49023438 C-6.75929058 19.91454292 -11.58447507 21.18697456 -18.875 19.3125 C-19.535 18.9825 -20.195 18.6525 -20.875 18.3125 C-19.48605801 15.09267994 -17.93253064 13.23900466 -15.25 11 C-13.02415551 9.14109726 -10.85761537 7.29553701 -8.78125 5.26953125 C-3.73302847 0.40576396 -3.73302847 0.40576396 0 0 Z " fill="#87736B" transform="translate(46.875,23.6875)"/>
<path d="M0 0 C0.88429688 -0.02578125 1.76859375 -0.0515625 2.6796875 -0.078125 C5.125 0.25 5.125 0.25 6.92578125 1.51171875 C9.10717836 4.67367874 8.42243131 7.50236552 8.125 11.25 C6.125 13.25 6.125 13.25 3.3046875 13.4453125 C2.21414062 13.42210938 1.12359375 13.39890625 0 13.375 C-1.09570312 13.35695313 -2.19140625 13.33890625 -3.3203125 13.3203125 C-4.16335937 13.29710938 -5.00640625 13.27390625 -5.875 13.25 C-5.90186553 11.27090602 -5.92133375 9.29171029 -5.9375 7.3125 C-5.94910156 6.21035156 -5.96070312 5.10820313 -5.97265625 3.97265625 C-5.80982101 -0.56719015 -4.09326589 0.07118723 0 0 Z M-1.875 4.25 C-1.875 4.58 -1.875 4.91 -1.875 5.25 C-0.225 5.25 1.425 5.25 3.125 5.25 C3.125 4.92 3.125 4.59 3.125 4.25 C1.475 4.25 -0.175 4.25 -1.875 4.25 Z M-1.875 8.25 C-1.875 8.58 -1.875 8.91 -1.875 9.25 C-0.225 9.25 1.425 9.25 3.125 9.25 C3.125 8.92 3.125 8.59 3.125 8.25 C1.475 8.25 -0.175 8.25 -1.875 8.25 Z " fill="#6B5347" transform="translate(77.875,58.75)"/>
<path d="M0 0 C1.31677734 0.00580078 1.31677734 0.00580078 2.66015625 0.01171875 C4.9375 0.3125 4.9375 0.3125 6.9375 2.3125 C6.6075 3.6325 6.2775 4.9525 5.9375 6.3125 C1.4825 5.3225 1.4825 5.3225 -3.0625 4.3125 C-3.0625 5.9625 -3.0625 7.6125 -3.0625 9.3125 C0.2375 8.9825 3.5375 8.6525 6.9375 8.3125 C6.6075 9.9625 6.2775 11.6125 5.9375 13.3125 C4.6175 13.3125 3.2975 13.3125 1.9375 13.3125 C1.9375 13.9725 1.9375 14.6325 1.9375 15.3125 C-1.38972441 14.7579626 -4.1638913 14.07236957 -7.0625 12.3125 C-8.58741998 9.26266004 -8.29812548 6.6701631 -8.0625 3.3125 C-5.78841337 0.08285254 -3.82213749 -0.07317789 0 0 Z " fill="#786457" transform="translate(33.0625,58.6875)"/>
<path d="M0 0 C3.73352948 1.44250003 4.79811128 3.6214025 6.83203125 6.95703125 C7.75 9.0625 7.75 9.0625 7.75 13.0625 C6.1 12.7325 4.45 12.4025 2.75 12.0625 C2.75 11.4025 2.75 10.7425 2.75 10.0625 C1.1721875 10.5265625 1.1721875 10.5265625 -0.4375 11 C-3.37752396 11.81935094 -6.25161623 12.51733931 -9.25 13.0625 C-5.562 0.1545 -5.562 0.1545 0 0 Z " fill="#695449" transform="translate(96.25,58.9375)"/>
<path d="M0 0 C0.99 0.33 1.98 0.66 3 1 C3 3.64 3 6.28 3 9 C5.31 9 7.62 9 10 9 C10 6.36 10 3.72 10 1 C11.32 1 12.64 1 14 1 C14.05395478 2.62463842 14.09277195 4.24978541 14.125 5.875 C14.14820313 6.77992187 14.17140625 7.68484375 14.1953125 8.6171875 C14 11 14 11 12 13 C9.46875 13.265625 9.46875 13.265625 6.5 13.25 C5.5203125 13.25515625 4.540625 13.2603125 3.53125 13.265625 C1 13 1 13 -1 11 C-1.23046875 8.65234375 -1.23046875 8.65234375 -1.1875 5.9375 C-1.18105469 5.03902344 -1.17460938 4.14054687 -1.16796875 3.21484375 C-1 1 -1 1 0 0 Z " fill="#6B5347" transform="translate(43,59)"/>
<path d="M0 0 C0.99 0.33 1.98 0.66 3 1 C3 3.64 3 6.28 3 9 C4.98 9 6.96 9 9 9 C9 10.32 9 11.64 9 13 C5.7 13 2.4 13 -1 13 C-1.02686553 11.02090602 -1.04633375 9.04171029 -1.0625 7.0625 C-1.07410156 5.96035156 -1.08570313 4.85820313 -1.09765625 3.72265625 C-1 1 -1 1 0 0 Z " fill="#60493C" transform="translate(60,59)"/>
<path d="M0 0 C0.77842938 3.40562852 1.09978121 6.50765756 1 10 C0.030625 9.835 -0.93875 9.67 -1.9375 9.5 C-3.95983571 9.14007707 -3.95983571 9.14007707 -6 9 C-7.32 9 -8.64 9 -10 9 C-10 7.68 -10 6.36 -10 5 C-7.36 5 -4.72 5 -2 5 C-2.33 4.34 -2.66 3.68 -3 3 C-4.65 3 -6.3 3 -8 3 C-8 2.34 -8 1.68 -8 1 C-2.25 0 -2.25 0 0 0 Z " fill="#62493D" transform="translate(85,60)"/>
<path d="M0 0 C0.99 0.33 1.98 0.66 3 1 C3 4.3 3 7.6 3 11 C2.01 11.495 2.01 11.495 1 12 C1 11.01 1 10.02 1 9 C0.34 9 -0.32 9 -1 9 C-1.09765625 2.84765625 -1.09765625 2.84765625 -1 1 C-0.67 0.67 -0.34 0.34 0 0 Z " fill="#5C4332" transform="translate(54,59)"/>
<path d="M0 0 C4.29 0 8.58 0 13 0 C12.67 1.32 12.34 2.64 12 4 C8.37 3.34 4.74 2.68 1 2 C1 4.31 1 6.62 1 9 C0.67 9 0.34 9 0 9 C0 6.03 0 3.06 0 0 Z " fill="#5C493D" transform="translate(27,61)"/>
<path d="M0 0 C1.32 0 2.64 0 4 0 C3.67 1.65 3.34 3.3 3 5 C1.68 5 0.36 5 -1 5 C-1 5.66 -1 6.32 -1 7 C-2.32 6.67 -3.64 6.34 -5 6 C-4.67 5.34 -4.34 4.68 -4 4 C-4.66 3.67 -5.32 3.34 -6 3 C-4.02 2.67 -2.04 2.34 0 2 C0 1.34 0 0.68 0 0 Z " fill="#604A3D" transform="translate(36,67)"/>
<path d="M0 0 C2.64 0 5.28 0 8 0 C8 1.32 8 2.64 8 4 C5.36 4 2.72 4 0 4 C0 2.68 0 1.36 0 0 Z " fill="#6A5349" transform="translate(61,68)"/>
<path d="M0 0 C0.99 0.33 1.98 0.66 3 1 C3 3.64 3 6.28 3 9 C2.34 9 1.68 9 1 9 C-1.09230769 4.56923077 -1.09230769 4.56923077 -0.625 1.6875 C-0.41875 1.130625 -0.2125 0.57375 0 0 Z " fill="#5D4233" transform="translate(43,59)"/>
<path d="M0 0 C0.66 0 1.32 0 2 0 C2.33 1.65 2.66 3.3 3 5 C1.35 5 -0.3 5 -2 5 C-1.34 3.35 -0.68 1.7 0 0 Z " fill="#806757" transform="translate(95,62)"/>
</svg>
